<svg xmlns="http://www.w3.org/2000/svg" width="16" height="16" fill="white" viewBox="0 0 16 16" >
<circle cx="10.1" cy="8.7" r="0.7"/>
<circle cx="11.8" cy="9" r="0.6"/>
<circle cx="8.3" cy="9" r="0.6"/>
<path d="M11.8,9.9c-0.4,0-0.6,0.2-0.8,0.4c-0.2-0.3-0.5-0.6-1-0.6c-0.6,0-0.9,0.3-1,0.6c-0.1-0.2-0.4-0.4-0.8-0.4c-1,0-1,1.3-1,1.3
	h1h0.6h0.4h0.8h0.7h0.5h0.5h1C12.8,11.2,12.9,9.9,11.8,9.9z"/>
<path d="M4.6,10.6c-0.1-0.4-0.2-0.9-0.2-1.3c0-2.7,2.1-4.9,4.8-5C8.6,2.7,7,1.7,5.3,1.7c-2.4,0-4.4,2-4.4,4.4c0,1.2,0.4,2.2,1.2,3
	l-1.6,1.4L4.6,10.6z"/>
<path d="M10,14.3c-2.6,0-4.7-2.1-4.7-4.6c0-1.2,0.5-2.4,1.4-3.3S8.7,5,9.9,5c2.6,0,4.7,2.1,4.7,4.6c0,1.1-0.3,2.1-1,2.9l2,1.8
	L10,14.3z M10,5.7c-1.1,0-2,0.4-2.8,1.2C6.4,7.6,6,8.6,6,9.6c0,2.2,1.8,3.9,3.9,3.9h0l3.8,0l-1.1-1l0.3-0.3c0.7-0.7,1-1.7,1-2.7
	C13.9,7.4,12.1,5.7,10,5.7z"/>
</svg>
