<?xml version="1.0" encoding="utf-8"?>
<!-- Generator: Adobe Illustrator 22.0.1, SVG Export Plug-In . SVG Version: 6.00 Build 0)  -->
<svg version="1.1" id="Layer_1" xmlns="http://www.w3.org/2000/svg" xmlns:xlink="http://www.w3.org/1999/xlink" x="0px" y="0px"
	 viewBox="0 0 16 16" style="enable-background:new 0 0 16 16;" xml:space="preserve">
<path d="M2.7,11.9C2.9,12.1,3,12.4,3,12.7c-0.1,0.7-0.2,1.3-0.4,2C4,14.4,4.8,14,5.2,13.8c0.2-0.1,0.5-0.1,0.7-0.1
	C6.6,13.9,7.3,14,8,14c4,0,7-2.8,7-6c0-3.2-3-6-7-6S1,4.8,1,8C1,9.5,1.6,10.8,2.7,11.9z M2.2,15.8c-0.2,0-0.5,0.1-0.7,0.1
	c-0.2,0-0.4-0.2-0.3-0.4c0.1-0.2,0.2-0.4,0.2-0.6l0,0c0.2-0.7,0.5-1.5,0.5-2.3C0.7,11.4,0,9.8,0,8c0-3.9,3.6-7,8-7s8,3.1,8,7
	s-3.6,7-8,7c-0.8,0-1.6-0.1-2.3-0.3C5.1,15,4,15.4,2.2,15.8z"/>
<path d="M8.2,4c0.3,0,0.5,0.2,0.5,0.5v3h3c0.3,0,0.5,0.2,0.5,0.5c0,0.3-0.2,0.5-0.5,0.5h-3v3c0,0.3-0.2,0.5-0.5,0.5
	c-0.3,0-0.5-0.2-0.5-0.5v-3h-3C4.4,8.5,4.2,8.3,4.2,8c0-0.3,0.2-0.5,0.5-0.5h3v-3C7.7,4.2,7.9,4,8.2,4z"/>
</svg>
