<svg xmlns="http://www.w3.org/2000/svg" width="16" height="16" fill="currentColor" viewBox="0 0 16 16" >
<path d="M9.1,2c1-1,2.6-1,3.5,0s1,2.6,0,3.5l-6.4,6.4c-0.6,0.6-1.5,0.6-2.1,0c-0.6-0.6-0.6-1.5,0-2.1l4.9-4.9c0.2-0.2,0.5-0.2,0.7,0
	s0.2,0.5,0,0.7l-4.9,4.9c-0.2,0.2-0.2,0.5,0,0.7c0.2,0.2,0.5,0.2,0.7,0l6.4-6.4c0.6-0.6,0.6-1.5,0-2.1c-0.6-0.6-1.5-0.6-2.1,0
	L3.4,9.1c-1,1-1,2.6,0,3.5s2.6,1,3.5,0l4.9-4.9c0.2-0.2,0.5-0.2,0.7,0s0.2,0.5,0,0.7l-4.9,4.9c-1.4,1.4-3.6,1.4-4.9,0
	s-1.4-3.6,0-4.9L9.1,2z"/>
</svg>
